<svg xmlns="http://www.w3.org/2000/svg" xmlns:xlink="http://www.w3.org/1999/xlink" viewBox="0 0 647.47 647.47"><defs><style>.cls-1{fill:#3db54b;stroke:#fff;stroke-miterlimit:10;stroke-width:50px;}.cls-2{fill:#fff;}</style><symbol id="Новый_символ" data-name="Новый символ" viewBox="0 0 647.47 647.47"><path class="cls-1" d="M323.73,622.47h0c165,0,298.74-133.75,298.74-298.74h0C622.47,158.75,488.72,25,323.73,25h0C158.75,25,25,158.75,25,323.73h0C25,488.72,158.75,622.47,323.73,622.47Z"/><path class="cls-2" d="M524.34,286.49v111.2c0,22.17-12.55,42.81-32.79,53.89l-152,82.72c-15.19,9-15.81-2-15.81-7V485.48c.2-7.41,4.11-14.54,10.64-18.07L451.92,403a14.74,14.74,0,0,0,1.36-.74,14.09,14.09,0,0,0,6.91-12V291.15c-.25-2-2.32-3.59-4.79-3.59a5.67,5.67,0,0,0-2.71.68L353.27,342.7l-16.42,9-25,13.69-17.67,9.67-72.69,39.82a68,68,0,0,1-65.59,0c-20.55-11.25-32.8-31.4-32.8-53.91V249.77c0-22.16,12.56-42.81,32.8-53.89l152-82.72c15.18-9,15.81,2,15.81,7V162c-.2,7.41-4.11,14.55-10.64,18.08l-117.54,64.4a13.73,13.73,0,0,0-1.36.74,14.08,14.08,0,0,0-6.91,12v99.12c.25,2,2.31,3.59,4.8,3.59a5.57,5.57,0,0,0,2.7-.68l99.42-54.47,16.42-9,25-13.68,17.67-9.67L426,232.59a68,68,0,0,1,65.59,0C512.09,243.84,524.34,264,524.34,286.49Z"/></symbol></defs><g id="Слой_2" data-name="Слой 2"><g id="Layer_1" data-name="Layer 1"><use width="647.47" height="647.47" xlink:href="#Новый_символ"/></g></g></svg>